<?xml version="1.0" encoding="UTF-8" standalone="no"?>
<svg
   version="1.0"
   width="500.000000pt"
   height="500.000000pt"
   viewBox="0 0 500.000000 500.000000"
   preserveAspectRatio="xMidYMid meet"
   id="svg98"
   sodipodi:docname="logo-negativo.svg"
   inkscape:version="1.2.2 (732a01da63, 2022-12-09)"
   xmlns:inkscape="http://www.inkscape.org/namespaces/inkscape"
   xmlns:sodipodi="http://sodipodi.sourceforge.net/DTD/sodipodi-0.dtd"
   xmlns="http://www.w3.org/2000/svg"
   xmlns:svg="http://www.w3.org/2000/svg">
  <defs
     id="defs102" />
  <sodipodi:namedview
     id="namedview100"
     pagecolor="#ffffff"
     bordercolor="#000000"
     borderopacity="0.25"
     inkscape:showpageshadow="2"
     inkscape:pageopacity="0.0"
     inkscape:pagecheckerboard="0"
     inkscape:deskcolor="#d1d1d1"
     inkscape:document-units="pt"
     showgrid="false"
     inkscape:zoom="1.206"
     inkscape:cx="119.81758"
     inkscape:cy="333.74793"
     inkscape:window-width="1920"
     inkscape:window-height="991"
     inkscape:window-x="-9"
     inkscape:window-y="-9"
     inkscape:window-maximized="1"
     inkscape:current-layer="svg98" />
  <g
     transform="translate(0.000000,500.000000) scale(0.100000,-0.100000)"
     fill="#000000"
     stroke="none"
     id="g96"
     style="fill:#ffffff">
    <path
       d="M2335 4119 c-477 -50 -916 -312 -1182 -707 -53 -79 -153 -264 -153 -284 0 -4 29 -8 64 -8 62 0 64 1 76 33 44 110 169 286 289 407 426 429 1070 565 1622 342 322 -130 587 -356 755 -647 22 -38 46 -85 54 -102 12 -32 14 -33 76 -33 35 0 64 3 64 6 0 14 -71 156 -110 219 -186 303 -454 531 -778 661 -250 100 -522 140 -777 113z"
       id="path2"
       style="fill:#ffffff" />
    <path
       d="M2340 3900 c-377 -47 -731 -246 -952 -536 -48 -62 -148 -223 -148 -236 0 -5 8 -8 18 -8 13 0 38 31 78 96 212 344 559 573 969 639 290 46 620 -19 890 -177 185 -108 353 -274 470 -463 39 -64 65 -95 77 -95 10 0 18 3 18 8 0 13 -100 174 -148 236 -199 261 -533 464 -857 521 -112 20 -316 27 -415 15z"
       id="path4"
       style="fill:#ffffff" />
    <path
       d="M2178 3545 c-20 -7 -51 -24 -67 -36 -32 -23 -81 -109 -81 -140 0 -12 -11 -20 -32 -24 -102 -22 -148 -75 -148 -170 0 -93 44 -145 142 -169 35 -8 43 -37 35 -122 -4 -35 -5 -64 -4 -64 2 0 29 9 61 20 97 34 295 36 382 3 42 -16 -7 25 -56 46 -67 29 -177 37 -262 19 l-68 -15 0 34 c0 19 -5 54 -11 78 -10 41 -13 43 -53 49 -109 17 -157 100 -106 184 19 31 71 62 104 62 8 0 16 -14 20 -34 4 -19 16 -45 27 -58 l20 -23 -11 23 c-16 33 -14 130 4 172 31 75 95 119 185 127 83 8 138 -11 188 -63 34 -35 44 -55 54 -104 l12 -60 51 0 c62 0 135 -33 153 -70 27 -53 7 -146 -35 -169 -9 -5 -39 -12 -66 -16 -46 -7 -48 -7 -37 13 6 11 11 38 11 58 l0 38 -26 -53 c-19 -38 -41 -62 -73 -83 -42 -28 -43 -30 -16 -25 17 3 38 9 47 12 13 5 15 2 11 -14 -3 -12 -2 -42 2 -68 l8 -48 8 40 c19 88 13 82 79 87 69 5 106 27 132 79 25 49 23 132 -4 180 -26 46 -102 89 -159 89 -37 0 -38 1 -53 53 -33 114 -125 177 -256 176 -41 0 -92 -7 -112 -14z"
       id="path6"
       style="fill:#ffffff" />
    <path
       d="M1850 2784 c-11 -12 -11 -15 1 -12 12 2 15 -31 19 -192 l5 -195 34 -3 c20 -2 37 2 42 10 13 19 11 365 -1 389 -13 24 -81 27 -100 3z"
       id="path8"
       style="fill:#ffffff" />
    <path
       d="M2005 2786 l-20 -15 20 2 c19 2 20 -6 25 -193 l5 -195 35 0 35 0 0 205 0 205 -40 3 c-24 2 -48 -3 -60 -12z"
       id="path10"
       style="fill:#ffffff" />
    <path
       d="M1263 2780 c-23 -5 -56 -16 -73 -25 -47 -24 -65 -88 -34 -120 33 -32 96 -2 81 39 -6 14 -11 15 -28 6 -27 -15 -44 0 -34 30 8 24 69 55 91 46 11 -4 14 -40 14 -175 0 -202 -1 -201 113 -201 114 0 167 39 167 124 0 42 -41 96 -73 96 -21 0 -20 1 6 23 60 49 38 135 -41 157 -43 11 -128 11 -189 0z m179 -56 c17 -38 -5 -102 -39 -110 l-26 -7 37 -19 c43 -22 60 -57 53 -111 -7 -49 -33 -79 -66 -75 l-26 3 -3 169 c-3 180 3 205 40 185 10 -6 24 -21 30 -35z"
       id="path12"
       style="fill:#ffffff" />
    <path
       d="M2673 2780 c-23 -5 -56 -16 -73 -25 -47 -24 -65 -88 -34 -120 33 -32 96 -2 81 39 -6 14 -11 15 -28 6 -27 -15 -44 0 -34 30 7 24 69 55 91 46 11 -4 14 -45 16 -188 l3 -183 34 -3 c20 -2 37 2 42 10 5 7 9 92 9 189 0 151 2 178 16 183 9 3 25 -4 40 -19 20 -20 24 -34 24 -82 0 -65 -17 -99 -53 -106 -12 -2 -2 -5 22 -6 37 -1 48 4 77 33 30 30 34 40 34 85 0 41 -5 57 -24 76 -41 41 -138 55 -243 35z"
       id="path14"
       style="fill:#ffffff" />
    <path
       d="M2987 2753 c-13 -12 -7 -51 9 -57 45 -17 82 10 63 46 -10 18 -58 25 -72 11z"
       id="path16"
       style="fill:#ffffff" />
    <path
       d="M1665 2640 c-84 -55 -88 -202 -5 -245 16 -8 46 -15 67 -15 39 0 103 31 103 50 0 7 -9 5 -22 -4 -33 -23 -56 -20 -89 13 -42 43 -38 65 19 97 63 36 82 54 82 74 0 49 -97 68 -155 30z m83 -42 c3 -22 -3 -32 -30 -48 -39 -24 -47 -12 -28 46 9 28 17 34 33 32 16 -2 23 -11 25 -30z"
       id="path18"
       style="fill:#ffffff" />
    <path
       d="M2212 2648 c-41 -20 -38 -88 5 -88 19 0 28 27 13 45 -16 19 -4 35 24 35 30 0 48 -22 44 -52 -2 -16 -19 -30 -60 -50 -77 -37 -99 -84 -62 -136 19 -27 78 -30 107 -5 18 17 19 17 28 0 14 -24 71 -22 94 3 15 17 16 20 3 15 -14 -6 -17 7 -20 95 -3 97 -4 103 -31 126 -31 26 -102 32 -145 12z m86 -170 c-3 -49 -5 -53 -28 -53 -21 0 -26 5 -28 32 -4 41 13 73 39 73 18 0 20 -6 17 -52z"
       id="path20"
       style="fill:#ffffff" />
    <path
       d="M2964 2645 c-17 -13 -17 -14 -1 -15 15 0 17 -12 17 -112 0 -62 4 -119 9 -126 5 -8 22 -12 42 -10 l34 3 3 124 c2 82 -1 128 -9 137 -15 18 -70 18 -95 -1z"
       id="path22"
       style="fill:#ffffff" />
    <path
       d="M3135 2646 c-11 -8 -16 -19 -12 -30 9 -22 24 -20 37 4 8 14 21 20 45 20 19 0 35 -5 35 -10 0 -6 -29 -54 -65 -108 -36 -53 -65 -102 -65 -109 0 -22 37 -33 110 -33 80 0 110 11 110 40 0 26 -22 26 -38 0 -9 -15 -23 -20 -53 -20 -50 0 -50 -1 31 119 33 50 60 97 60 105 0 9 -9 20 -19 26 -29 15 -154 13 -176 -4z"
       id="path24"
       style="fill:#ffffff" />
    <path
       d="M3378 2649 c-20 -11 -24 -34 -7 -44 6 -4 17 2 25 14 11 15 26 21 51 21 43 0 43 3 -36 -120 -33 -52 -61 -100 -61 -107 0 -22 37 -33 110 -33 75 0 110 11 110 35 0 25 -21 28 -41 6 -13 -14 -32 -21 -55 -21 -44 0 -44 1 36 124 33 51 60 98 60 104 0 6 -9 16 -19 22 -25 13 -151 13 -173 -1z"
       id="path26"
       style="fill:#ffffff" />
    <path
       d="M3642 2644 c-14 -9 -22 -26 -22 -43 0 -35 27 -49 49 -26 15 15 14 18 -4 31 -17 13 -18 16 -5 24 25 16 59 11 70 -10 17 -32 3 -57 -43 -75 -50 -20 -76 -42 -88 -72 -9 -25 4 -73 24 -85 20 -13 71 -9 94 7 18 13 22 13 33 0 14 -17 53 -20 81 -5 22 12 26 32 4 24 -13 -5 -15 9 -15 95 0 95 -2 104 -25 126 -19 20 -34 25 -77 25 -32 0 -62 -6 -76 -16z m98 -157 c0 -24 -5 -48 -12 -55 -20 -20 -45 -14 -52 12 -10 41 13 86 45 86 16 0 19 -8 19 -43z"
       id="path28"
       style="fill:#ffffff" />
    <path
       d="M1286 2276 c-15 -33 -24 -61 -21 -64 2 -3 7 3 11 12 8 21 74 23 74 1 0 -8 5 -15 10 -15 10 0 -3 39 -33 96 l-15 29 -26 -59z m32 -24 c-27 -5 -32 2 -18 29 l13 22 13 -24 c11 -22 11 -24 -8 -27z"
       id="path30"
       style="fill:#ffffff" />
    <path
       d="M1581 2318 c0 -10 -6 -18 -12 -18 -8 0 -8 -4 -1 -12 6 -7 12 -26 14 -43 2 -21 9 -31 23 -33 18 -2 18 -2 3 8 -11 6 -18 23 -18 40 0 19 6 30 18 33 15 4 15 5 0 6 -9 0 -19 9 -21 19 -4 16 -5 16 -6 0z"
       id="path32"
       style="fill:#ffffff" />
    <path
       d="M1670 2270 c0 -66 17 -83 22 -22 2 29 7 37 23 37 16 0 21 -9 26 -40 l7 -40 -2 45 c-1 41 -3 45 -28 48 -16 2 -28 9 -28 18 0 8 -4 14 -10 14 -6 0 -10 -27 -10 -60z"
       id="path34"
       style="fill:#ffffff" />
    <path
       d="M2099 2313 c-2 -25 1 -54 7 -80 3 -16 11 -23 27 -22 17 1 18 2 5 6 -13 3 -18 14 -18 38 0 24 5 35 18 38 16 4 16 5 0 6 -10 0 -18 8 -18 16 0 21 -20 19 -21 -2z"
       id="path36"
       style="fill:#ffffff" />
    <path
       d="M2473 2270 c0 -36 2 -50 4 -32 2 17 2 47 0 65 -2 17 -4 3 -4 -33z"
       id="path38"
       style="fill:#ffffff" />
    <path
       d="M2549 2313 c-2 -25 1 -54 7 -80 3 -16 11 -23 27 -22 17 1 18 2 5 6 -13 3 -18 14 -18 38 0 24 5 35 18 38 16 4 16 5 0 6 -10 0 -18 8 -18 16 0 21 -20 19 -21 -2z"
       id="path40"
       style="fill:#ffffff" />
    <path
       d="M2803 2270 c0 -36 2 -50 4 -32 2 17 2 47 0 65 -2 17 -4 3 -4 -33z"
       id="path42"
       style="fill:#ffffff" />
    <path
       d="M3300 2270 c0 -33 4 -60 10 -60 6 0 10 9 10 20 0 16 7 20 30 20 24 0 31 5 36 27 8 31 -15 53 -58 53 -28 0 -28 -1 -28 -60z m73 28 c7 -23 -4 -38 -29 -38 -19 0 -24 5 -24 25 0 20 5 25 24 25 13 0 26 -6 29 -12z"
       id="path44"
       style="fill:#ffffff" />
    <path
       d="M1420 2274 c0 -44 17 -64 55 -64 35 0 35 0 35 45 0 54 -18 60 -22 8 -2 -30 -7 -38 -23 -38 -16 0 -21 8 -23 38 -4 41 -22 51 -22 11z"
       id="path46"
       style="fill:#ffffff" />
    <path
       d="M1822 2288 c-29 -29 -7 -78 34 -78 13 0 25 4 29 9 3 6 -7 9 -21 8 -15 -1 -29 4 -31 11 -3 8 7 12 31 12 39 0 41 2 26 31 -12 21 -50 25 -68 7z m56 -15 c2 -8 -6 -13 -22 -13 -25 0 -33 10 -19 24 10 10 36 3 41 -11z"
       id="path48"
       style="fill:#ffffff" />
    <path
       d="M1961 2250 l2 -45 6 40 c5 31 10 40 26 40 16 0 21 -8 23 -37 4 -47 22 -50 22 -4 0 40 -17 57 -54 54 -24 -2 -26 -5 -25 -48z"
       id="path50"
       style="fill:#ffffff" />
    <path
       d="M2200 2255 c0 -25 5 -45 10 -45 6 0 10 20 10 45 0 25 -4 45 -10 45 -5 0 -10 -20 -10 -45z"
       id="path52"
       style="fill:#ffffff" />
    <path
       d="M2286 2284 c-21 -20 -20 -37 2 -57 22 -20 48 -22 58 -5 5 8 2 9 -9 5 -26 -10 -47 3 -47 28 0 25 21 38 47 28 11 -4 14 -3 9 5 -10 17 -42 15 -60 -4z"
       id="path54"
       style="fill:#ffffff" />
    <path
       d="M2662 2288 c-7 -7 -12 -21 -12 -33 0 -30 19 -45 57 -45 32 0 33 1 33 45 0 44 -1 45 -33 45 -18 0 -38 -5 -45 -12z m53 -33 c0 -23 -5 -30 -19 -30 -28 0 -43 29 -26 50 21 25 45 14 45 -20z"
       id="path56"
       style="fill:#ffffff" />
    <path
       d="M2883 2255 c0 -27 2 -38 4 -22 2 15 2 37 0 50 -2 12 -4 0 -4 -28z"
       id="path58"
       style="fill:#ffffff" />
    <path
       d="M2962 2288 c-7 -7 -12 -21 -12 -33 0 -30 19 -45 57 -45 32 0 33 1 33 45 0 44 -1 45 -33 45 -18 0 -38 -5 -45 -12z m53 -33 c0 -23 -5 -30 -19 -30 -28 0 -43 29 -26 50 21 25 45 14 45 -20z"
       id="path60"
       style="fill:#ffffff" />
    <path
       d="M3101 2253 l2 -48 6 40 c5 34 10 40 31 40 21 0 26 -6 31 -40 l7 -40 -2 45 c-1 44 -1 45 -38 48 l-38 3 1 -48z"
       id="path62"
       style="fill:#ffffff" />
    <path
       d="M3453 2255 c0 -27 2 -38 4 -22 2 15 2 37 0 50 -2 12 -4 0 -4 -28z"
       id="path64"
       style="fill:#ffffff" />
    <path
       d="M3543 2293 c33 -5 34 -13 2 -43 -35 -33 -31 -40 18 -39 l42 2 -35 6 c-22 4 -30 9 -23 14 7 4 22 21 33 37 l21 30 -43 -1 c-30 -2 -34 -3 -15 -6z"
       id="path66"
       style="fill:#ffffff" />
    <path
       d="M3680 2291 c22 -4 30 -9 23 -14 -7 -4 -22 -21 -33 -37 l-21 -30 43 1 c41 2 42 2 10 8 l-34 6 31 29 c17 17 31 33 31 38 0 4 -19 7 -42 7 l-43 -2 35 -6z"
       id="path68"
       style="fill:#ffffff" />
    <path
       d="M3796 2284 c-32 -32 -5 -76 45 -72 27 2 29 5 29 43 0 38 -2 41 -29 43 -16 1 -36 -5 -45 -14z m62 -23 c5 -30 -10 -45 -37 -36 -13 4 -21 15 -21 30 0 40 53 46 58 6z"
       id="path70"
       style="fill:#ffffff" />
    <path
       d="M3977 2242 c-10 -10 -17 -35 -17 -55 0 -97 -79 -208 -187 -262 -108 -53 -201 -66 -517 -72 -311 -6 -355 -3 -911 52 -187 18 -427 39 -534 46 -210 13 -602 7 -736 -11 -156 -21 -334 -77 -424 -134 -65 -41 -39 -53 40 -17 271 123 734 149 1424 80 110 -11 288 -28 395 -39 466 -47 937 -58 1124 -26 181 30 309 111 376 237 41 77 52 169 25 199 -22 25 -37 25 -58 2z"
       id="path72"
       style="fill:#ffffff" />
    <path
       d="M4102 2123 c-5 -10 -13 -36 -17 -57 -17 -96 -96 -194 -195 -241 -47 -23 -50 -26 -21 -21 105 18 214 106 263 213 34 72 34 116 1 121 -13 2 -25 -4 -31 -15z"
       id="path74"
       style="fill:#ffffff" />
    <path
       d="M3185 2085 c-14 -13 -45 -33 -70 -44 -66 -29 -105 -60 -105 -82 0 -17 6 -15 48 15 73 52 111 69 143 62 35 -7 85 10 93 31 18 45 -68 60 -109 18z m75 -25 c-8 -5 -22 -9 -30 -9 -10 0 -8 3 5 9 27 12 43 12 25 0z"
       id="path76"
       style="fill:#ffffff" />
    <path
       d="M3327 2094 c-8 -8 1 -24 14 -24 5 0 9 7 9 15 0 15 -12 20 -23 9z"
       id="path78"
       style="fill:#ffffff" />
    <path
       d="M3388 2055 c-20 -7 -48 -21 -62 -30 -14 -10 -33 -14 -42 -11 -17 6 -64 -14 -82 -37 -9 -10 -8 -18 2 -32 12 -17 17 -17 45 -5 17 7 39 22 49 34 21 26 81 52 145 61 29 5 46 12 44 19 -5 16 -57 17 -99 1z m-152 -80 c-11 -8 -25 -15 -30 -15 -6 1 0 7 14 15 32 19 40 18 16 0z m4 -25 c-8 -5 -19 -10 -25 -10 -5 0 -3 5 5 10 8 5 20 10 25 10 6 0 3 -5 -5 -10z"
       id="path80"
       style="fill:#ffffff" />
    <path
       d="M1130 2049 c-103 -13 -238 -47 -330 -84 -99 -39 -88 -45 20 -11 109 35 251 56 423 64 95 4 152 11 154 18 7 22 -140 29 -267 13z"
       id="path82"
       style="fill:#ffffff" />
    <path
       d="M3160 1999 c0 -5 5 -7 10 -4 6 3 10 8 10 11 0 2 -4 4 -10 4 -5 0 -10 -5 -10 -11z"
       id="path84"
       style="fill:#ffffff" />
    <path
       d="M1061 1738 c179 -335 489 -613 834 -747 212 -83 373 -114 605 -114 243 0 421 36 641 129 306 129 571 358 748 647 71 117 72 107 -6 107 l-68 -1 -56 -87 c-221 -339 -569 -571 -982 -654 -145 -29 -393 -31 -537 -4 -412 76 -776 315 -998 658 l-57 87 -68 1 c-67 0 -68 0 -56 -22z"
       id="path86"
       style="fill:#ffffff" />
    <path
       d="M1340 1701 c217 -310 546 -522 910 -587 128 -23 372 -23 500 0 275 49 536 185 736 383 78 77 204 234 204 254 0 5 -8 9 -17 9 -11 0 -46 -37 -87 -90 -254 -336 -658 -534 -1086 -534 -429 0 -831 198 -1086 534 -52 68 -75 90 -92 90 -22 0 -21 -3 18 -59z"
       id="path88"
       style="fill:#ffffff" />
    <path
       d="M2472 1706 c-18 -39 -27 -46 -59 -51 -69 -12 -69 -13 -29 -54 38 -39 38 -39 28 -87 -6 -27 -8 -51 -6 -53 3 -3 25 6 50 19 l45 25 50 -27 50 -27 -5 30 c-3 16 -8 41 -11 57 -5 22 1 34 30 62 43 41 44 50 6 50 -50 0 -76 16 -96 59 -10 23 -21 41 -25 41 -3 0 -16 -20 -28 -44z"
       id="path90"
       style="fill:#ffffff" />
    <path
       d="M2149 1581 c-10 -33 -17 -40 -52 -51 l-41 -12 32 -27 c27 -22 32 -33 32 -70 l0 -43 35 27 c36 26 36 27 77 10 38 -15 40 -15 34 2 -19 48 -18 72 4 100 l22 28 -41 3 c-33 3 -44 9 -61 38 -12 18 -23 34 -25 34 -2 0 -9 -17 -16 -39z"
       id="path92"
       style="fill:#ffffff" />
    <path
       d="M2811 1584 c-20 -29 -29 -34 -63 -34 l-39 0 21 -31 c22 -29 23 -55 5 -101 -7 -17 -4 -17 35 -3 42 15 44 14 76 -10 l34 -26 0 44 c0 37 5 47 32 67 l32 24 -41 17 c-32 13 -43 24 -48 48 -9 43 -17 44 -44 5z"
       id="path94"
       style="fill:#ffffff" />
  </g>
</svg>
